# The Great Editor v0.0.1
mtllib floor_1.mtl
o floor_1
v 0.0636275662798571 -1.3998064581568563 0
v 0.0636275662798571 -1.3998064581568563 -0.1
v 0.08271583616381424 -0.10816686267575709 0
v 0.08271583616381424 -0.10816686267575709 -0.1
v 2.2269648197949987 -0.10816686267575709 0
v 2.2269648197949987 -0.10816686267575709 -0.1
v 2.252415846306942 -1.369265226342525 0
v 2.252415846306942 -1.369265226342525 -0.1
v 2.2269648197949987 -1.9279152582796704 0
v 2.2269648197949987 -1.9279152582796704 -0.1
v 1.4888850509486564 -2.691446053637956 0
v 1.4888850509486564 -2.691446053637956 -0.1
v 0.08271583616381424 -2.691446053637956 0
v 0.08271583616381424 -2.691446053637956 -0.1
vt 0.0636275662798571 -1.3998064581568563 0
vt 0.08271583616381424 -0.10816686267575709 0
vt 2.2269648197949987 -0.10816686267575709 0
vt 2.252415846306942 -1.369265226342525 0
vt 2.2269648197949987 -1.9279152582796704 0
vt 1.4888850509486564 -2.691446053637956 0
vt 0.08271583616381424 -2.691446053637956 0
vn 0 0 1
vn 0 0 -1
usemtl floor_1
s off
f 3/2/1 1/1/1 7/4/1
f 8/4/2 2/1/2 4/2/2
f 3/2/1 7/4/1 5/3/1
f 6/3/2 8/4/2 4/2/2
f 11/6/1 9/5/1 1/1/1
f 2/1/2 10/5/2 12/6/2
f 11/6/1 1/1/1 13/7/1
f 14/7/2 2/1/2 12/6/2
f 1/1/1 9/5/1 7/4/1
f 8/4/2 10/5/2 2/1/2
