# The Great Editor v0.0.1
mtllib navgraph_0.mtl
o walls
v 48.9977 -11.3230 0.1000
v 30.3105 -11.5938 0.1000
v 30.2960 -10.5939 0.1000
v 48.9832 -10.3231 0.1000
vt 0.000 1.000
vt 17.6891 1.000
vt 17.6891 0.000
vt 0.000 0.000
v 30.2960 -10.5939 0.1000
v 48.9832 -10.3231 0.1000
v 48.9977 -11.3230 0.1000
v 30.3105 -11.5938 0.1000
vt 0.000 1.000
vt 17.6891 1.000
vt 17.6891 0.000
vt 0.000 0.000
v 31.3105 -11.5792 0.1000
v 18.6900 -11.7648 0.1000
v 18.6753 -10.7649 0.1000
v 31.2958 -10.5793 0.1000
vt 0.000 1.000
vt 11.6219 1.000
vt 11.6219 0.000
vt 0.000 0.000
v 18.6753 -10.7649 0.1000
v 31.2958 -10.5793 0.1000
v 31.3105 -11.5792 0.1000
v 18.6900 -11.7648 0.1000
vt 0.000 1.000
vt 11.6219 1.000
vt 11.6219 0.000
vt 0.000 0.000
v 19.6924 -10.7675 0.1000
v 19.5017 -20.3973 0.1000
v 18.5019 -20.3775 0.1000
v 18.6926 -10.7477 0.1000
vt 0.000 1.000
vt 8.6317 1.000
vt 8.6317 0.000
vt 0.000 0.000
v 18.5019 -20.3775 0.1000
v 18.6926 -10.7477 0.1000
v 19.6924 -10.7675 0.1000
v 19.5017 -20.3973 0.1000
vt 0.000 1.000
vt 8.6317 1.000
vt 8.6317 0.000
vt 0.000 0.000
v 31.3197 -11.0309 0.1000
v 30.5171 -34.9298 0.1000
v 29.5177 -34.8962 0.1000
v 30.3203 -10.9973 0.1000
vt 0.000 1.000
vt 22.9124 1.000
vt 22.9124 0.000
vt 0.000 0.000
v 29.5177 -34.8962 0.1000
v 30.3203 -10.9973 0.1000
v 31.3197 -11.0309 0.1000
v 30.5171 -34.9298 0.1000
vt 0.000 1.000
vt 22.9124 1.000
vt 22.9124 0.000
vt 0.000 0.000
v 30.5419 -33.9211 0.1000
v 30.2701 -51.4974 0.1000
v 29.2702 -51.4820 0.1000
v 29.5420 -33.9056 0.1000
vt 0.000 1.000
vt 16.5784 1.000
vt 16.5784 0.000
vt 0.000 0.000
v 29.2702 -51.4820 0.1000
v 29.5420 -33.9056 0.1000
v 30.5419 -33.9211 0.1000
v 30.2701 -51.4974 0.1000
vt 0.000 1.000
vt 16.5784 1.000
vt 16.5784 0.000
vt 0.000 0.000
v 30.3078 -51.4579 0.1000
v 18.2873 -52.2033 0.1000
v 18.2254 -51.2053 0.1000
v 30.2459 -50.4598 0.1000
vt 0.000 1.000
vt 11.0437 1.000
vt 11.0437 0.000
vt 0.000 0.000
v 18.2254 -51.2053 0.1000
v 30.2459 -50.4598 0.1000
v 30.3078 -51.4579 0.1000
v 18.2873 -52.2033 0.1000
vt 0.000 1.000
vt 11.0437 1.000
vt 11.0437 0.000
vt 0.000 0.000
v 18.2554 -52.1734 0.1000
v 18.2554 -45.2776 0.1000
v 19.2554 -45.2776 0.1000
v 19.2554 -52.1734 0.1000
vt 0.000 1.000
vt 5.8958 1.000
vt 5.8958 0.000
vt 0.000 0.000
v 19.2554 -45.2776 0.1000
v 19.2554 -52.1734 0.1000
v 18.2554 -52.1734 0.1000
v 18.2554 -45.2776 0.1000
vt 0.000 1.000
vt 5.8958 1.000
vt 5.8958 0.000
vt 0.000 0.000
v 30.9010 -34.8015 0.1000
v 18.2817 -35.4510 0.1000
v 18.2303 -34.4523 0.1000
v 30.8496 -33.8028 0.1000
vt 0.000 1.000
vt 11.6360 1.000
vt 11.6360 0.000
vt 0.000 0.000
v 18.2303 -34.4523 0.1000
v 30.8496 -33.8028 0.1000
v 30.9010 -34.8015 0.1000
v 18.2817 -35.4510 0.1000
vt 0.000 1.000
vt 11.6360 1.000
vt 11.6360 0.000
vt 0.000 0.000
v 19.2843 -34.4567 0.1000
v 18.8829 -41.1798 0.1000
v 17.8847 -41.1202 0.1000
v 18.2861 -34.3971 0.1000
vt 0.000 1.000
vt 5.7351 1.000
vt 5.7351 0.000
vt 0.000 0.000
v 17.8847 -41.1202 0.1000
v 18.2861 -34.3971 0.1000
v 19.2843 -34.4567 0.1000
v 18.8829 -41.1798 0.1000
vt 0.000 1.000
vt 5.7351 1.000
vt 5.7351 0.000
vt 0.000 0.000
v 48.7366 -25.0846 0.1000
v 29.7929 -25.1749 0.1000
v 29.7882 -24.1749 0.1000
v 48.7318 -24.0847 0.1000
vt 0.000 1.000
vt 17.9438 1.000
vt 17.9438 0.000
vt 0.000 0.000
v 29.7882 -24.1749 0.1000
v 48.7318 -24.0847 0.1000
v 48.7366 -25.0846 0.1000
v 29.7929 -25.1749 0.1000
vt 0.000 1.000
vt 17.9438 1.000
vt 17.9438 0.000
vt 0.000 0.000
v 48.3168 -18.0704 0.1000
v 30.1424 -18.4321 0.1000
v 30.1225 -17.4323 0.1000
v 48.2969 -17.0706 0.1000
vt 0.000 1.000
vt 17.1780 1.000
vt 17.1780 0.000
vt 0.000 0.000
v 30.1225 -17.4323 0.1000
v 48.2969 -17.0706 0.1000
v 48.3168 -18.0704 0.1000
v 30.1424 -18.4321 0.1000
vt 0.000 1.000
vt 17.1780 1.000
vt 17.1780 0.000
vt 0.000 0.000
v 30.0637 -33.9825 0.1000
v 43.9655 -34.4428 0.1000
v 43.9324 -35.4422 0.1000
v 30.0306 -34.9819 0.1000
vt 0.000 1.000
vt 12.9094 1.000
vt 12.9094 0.000
vt 0.000 0.000
v 43.9324 -35.4422 0.1000
v 30.0306 -34.9819 0.1000
v 30.0637 -33.9825 0.1000
v 43.9655 -34.4428 0.1000
vt 0.000 1.000
vt 12.9094 1.000
vt 12.9094 0.000
vt 0.000 0.000
v 42.8246 -34.5944 0.1000
v 49.0784 -32.6780 0.1000
v 49.3714 -33.6341 0.1000
v 43.1176 -35.5505 0.1000
vt 0.000 1.000
vt 5.5408 1.000
vt 5.5408 0.000
vt 0.000 0.000
v 49.3714 -33.6341 0.1000
v 43.1176 -35.5505 0.1000
v 42.8246 -34.5944 0.1000
v 49.0784 -32.6780 0.1000
vt 0.000 1.000
vt 5.5408 1.000
vt 5.5408 0.000
vt 0.000 0.000
v 43.3648 -34.4105 0.1000
v 49.6041 -38.1739 0.1000
v 49.0876 -39.0302 0.1000
v 42.8483 -35.2668 0.1000
vt 0.000 1.000
vt 6.2865 1.000
vt 6.2865 0.000
vt 0.000 0.000
v 49.0876 -39.0302 0.1000
v 42.8483 -35.2668 0.1000
v 43.3648 -34.4105 0.1000
v 49.6041 -38.1739 0.1000
vt 0.000 1.000
vt 6.2865 1.000
vt 6.2865 0.000
vt 0.000 0.000
v 49.1619 -10.5698 0.1000
v 48.4732 -18.1450 0.1000
v 47.4773 -18.0545 0.1000
v 48.1660 -10.4793 0.1000
vt 0.000 1.000
vt 6.6064 1.000
vt 6.6064 0.000
vt 0.000 0.000
v 47.4773 -18.0545 0.1000
v 48.1660 -10.4793 0.1000
v 49.1619 -10.5698 0.1000
v 48.4732 -18.1450 0.1000
vt 0.000 1.000
vt 6.6064 1.000
vt 6.6064 0.000
vt 0.000 0.000
v 48.5138 -17.0951 0.1000
v 48.6127 -24.4180 0.1000
v 47.6128 -24.4315 0.1000
v 47.5138 -17.1086 0.1000
vt 0.000 1.000
vt 6.3236 1.000
vt 6.3236 0.000
vt 0.000 0.000
v 47.6128 -24.4315 0.1000
v 47.5138 -17.1086 0.1000
v 48.5138 -17.0951 0.1000
v 48.6127 -24.4180 0.1000
vt 0.000 1.000
vt 6.3236 1.000
vt 6.3236 0.000
vt 0.000 0.000
vn 0.000 0.000 1.000
s off
g lanes
f 1/1/1 3/3/1 2/2/1
f 1/1/1 4/4/1 3/3/1
f 5/5/1 7/7/1 6/6/1
f 5/5/1 8/8/1 7/7/1
f 9/9/1 11/11/1 10/10/1
f 9/9/1 12/12/1 11/11/1
f 13/13/1 15/15/1 14/14/1
f 13/13/1 16/16/1 15/15/1
f 17/17/1 19/19/1 18/18/1
f 17/17/1 20/20/1 19/19/1
f 21/21/1 23/23/1 22/22/1
f 21/21/1 24/24/1 23/23/1
f 25/25/1 27/27/1 26/26/1
f 25/25/1 28/28/1 27/27/1
f 29/29/1 31/31/1 30/30/1
f 29/29/1 32/32/1 31/31/1
f 33/33/1 35/35/1 34/34/1
f 33/33/1 36/36/1 35/35/1
f 37/37/1 39/39/1 38/38/1
f 37/37/1 40/40/1 39/39/1
f 41/41/1 43/43/1 42/42/1
f 41/41/1 44/44/1 43/43/1
f 45/45/1 47/47/1 46/46/1
f 45/45/1 48/48/1 47/47/1
f 49/49/1 51/51/1 50/50/1
f 49/49/1 52/52/1 51/51/1
f 53/53/1 55/55/1 54/54/1
f 53/53/1 56/56/1 55/55/1
f 57/57/1 59/59/1 58/58/1
f 57/57/1 60/60/1 59/59/1
f 61/61/1 63/63/1 62/62/1
f 61/61/1 64/64/1 63/63/1
f 65/65/1 67/67/1 66/66/1
f 65/65/1 68/68/1 67/67/1
f 69/69/1 71/71/1 70/70/1
f 69/69/1 72/72/1 71/71/1
f 73/73/1 75/75/1 74/74/1
f 73/73/1 76/76/1 75/75/1
f 77/77/1 79/79/1 78/78/1
f 77/77/1 80/80/1 79/79/1
f 81/81/1 83/83/1 82/82/1
f 81/81/1 84/84/1 83/83/1
f 85/85/1 87/87/1 86/86/1
f 85/85/1 88/88/1 87/87/1
f 89/89/1 91/91/1 90/90/1
f 89/89/1 92/92/1 91/91/1
f 93/93/1 95/95/1 94/94/1
f 93/93/1 96/96/1 95/95/1
f 97/97/1 99/99/1 98/98/1
f 97/97/1 100/100/1 99/99/1
f 101/101/1 103/103/1 102/102/1
f 101/101/1 104/104/1 103/103/1
f 105/105/1 107/107/1 106/106/1
f 105/105/1 108/108/1 107/107/1
f 109/109/1 111/111/1 110/110/1
f 109/109/1 112/112/1 111/111/1
f 113/113/1 115/115/1 114/114/1
f 113/113/1 116/116/1 115/115/1
f 117/117/1 119/119/1 118/118/1
f 117/117/1 120/120/1 119/119/1
f 121/121/1 123/123/1 122/122/1
f 121/121/1 124/124/1 123/123/1
f 125/125/1 127/127/1 126/126/1
f 125/125/1 128/128/1 127/127/1
