# The Great Editor v0.0.1
mtllib floor_1.mtl
o floor_1
v 0.06298466441466867 -1.3856626171227109 0
v 0.06298466441466867 -1.3856626171227109 -0.1
v 0.08188006373906928 -0.10707392950493674 0
v 0.08188006373906928 -0.10707392950493674 -0.1
v 2.2044632545134037 -0.10707392950493674 0
v 2.2044632545134037 -0.10707392950493674 -0.1
v 2.229657120279271 -1.3554299782036698 0
v 2.229657120279271 -1.3554299782036698 -0.1
v 2.2044632545134037 -1.9084353317644607 0
v 2.2044632545134037 -1.9084353317644607 -0.1
v 1.473841147303247 -2.664251304740485 0
v 1.473841147303247 -2.664251304740485 -0.1
v 0.08188006373906928 -2.664251304740485 0
v 0.08188006373906928 -2.664251304740485 -0.1
vt 0.06298466441466867 -1.3856626171227109 0
vt 0.08188006373906928 -0.10707392950493674 0
vt 2.2044632545134037 -0.10707392950493674 0
vt 2.229657120279271 -1.3554299782036698 0
vt 2.2044632545134037 -1.9084353317644607 0
vt 1.473841147303247 -2.664251304740485 0
vt 0.08188006373906928 -2.664251304740485 0
vn 0 0 1
vn 0 0 -1
usemtl floor_1
s off
f 3/2/1 1/1/1 7/4/1
f 8/4/2 2/1/2 4/2/2
f 3/2/1 7/4/1 5/3/1
f 6/3/2 8/4/2 4/2/2
f 11/6/1 9/5/1 1/1/1
f 2/1/2 10/5/2 12/6/2
f 11/6/1 1/1/1 13/7/1
f 14/7/2 2/1/2 12/6/2
f 1/1/1 9/5/1 7/4/1
f 8/4/2 10/5/2 2/1/2
