# The Great Editor v0.0.1
mtllib floor_1.mtl
o floor_1
v 0.06386637865800807 -1.4050603304761775 0
v 0.06386637865800807 -1.4050603304761775 -0.1
v 0.08302629225541049 -0.10857284371861371 0
v 0.08302629225541049 -0.10857284371861371 -0.1
v 2.2353232530302822 -0.10857284371861371 0
v 2.2353232530302822 -0.10857284371861371 -0.1
v 2.2608698044934856 -1.3744044687203336 0
v 2.2608698044934856 -1.3744044687203336 -0.1
v 2.2353232530302822 -1.9351512733376444 0
v 2.2353232530302822 -1.9351512733376444 -0.1
v 1.4944732605973887 -2.7015478172337413 0
v 1.4944732605973887 -2.7015478172337413 -0.1
v 0.08302629225541049 -2.7015478172337413 0
v 0.08302629225541049 -2.7015478172337413 -0.1
vt 0.06386637865800807 -1.4050603304761775 0
vt 0.08302629225541049 -0.10857284371861371 0
vt 2.2353232530302822 -0.10857284371861371 0
vt 2.2608698044934856 -1.3744044687203336 0
vt 2.2353232530302822 -1.9351512733376444 0
vt 1.4944732605973887 -2.7015478172337413 0
vt 0.08302629225541049 -2.7015478172337413 0
vn 0 0 1
vn 0 0 -1
usemtl floor_1
s off
f 3/2/1 1/1/1 7/4/1
f 8/4/2 2/1/2 4/2/2
f 3/2/1 7/4/1 5/3/1
f 6/3/2 8/4/2 4/2/2
f 11/6/1 9/5/1 1/1/1
f 2/1/2 10/5/2 12/6/2
f 11/6/1 1/1/1 13/7/1
f 14/7/2 2/1/2 12/6/2
f 1/1/1 9/5/1 7/4/1
f 8/4/2 10/5/2 2/1/2
