# The Great Editor v0.0.1
mtllib floor_1.mtl
o floor_1
v 50.63544041528406 -8.69963101885762 0
v 50.63544041528406 -8.69963101885762 -0.1
v 50.5713733525464 -29.847450071334112 0
v 50.5713733525464 -29.847450071334112 -0.1
v 39.48478105257419 -29.78338300859646 0
v 39.48478105257419 -29.78338300859646 -0.1
v 39.54884811531185 -31.065049311866723 0
v 39.54884811531185 -31.065049311866723 -0.1
v 50.69953998287343 -31.193215942193746 0
v 50.69953998287343 -31.193215942193746 -0.1
v 50.50727378495703 -39.84460976110074 0
v 50.50727378495703 -39.84460976110074 -0.1
v 37.305883327311314 -39.908709328690115 0
v 37.305883327311314 -39.908709328690115 -0.1
v 37.24181626457366 -53.55866674005456 0
v 37.24181626457366 -53.55866674005456 -0.1
v 13.210166767609781 -53.68683337038159 0
v 13.210166767609781 -53.68683337038159 -0.1
v 13.210166767609781 -31.70591496835357 0
v 13.210166767609781 -31.70591496835357 -0.1
v 27.629156465788107 -31.51364877043717 0
v 27.629156465788107 -31.51364877043717 -0.1
v 27.565089403050454 -14.339027762950204 0
v 27.565089403050454 -14.339027762950204 -0.1
v 26.155223964601447 -14.274960700212551 0
v 26.155223964601447 -14.274960700212551 -0.1
v 26.155223964601447 -30.42421616023159 0
v 26.155223964601447 -30.42421616023159 -0.1
v 13.082000137282757 -30.296049529904565 0
v 13.082000137282757 -30.296049529904565 -0.1
v 13.17301372209525 -8.463613290527785 0
v 13.17301372209525 -8.463613290527785 -0.1
v 27.50098983546108 -47.919237491110266 0
v 27.50098983546108 -47.919237491110266 -0.1
v 26.2192910273391 -47.85517042837261 0
v 26.2192910273391 -47.85517042837261 -0.1
v 26.2192910273391 -38.178411061997686 0
v 26.2192910273391 -38.178411061997686 -0.1
v 27.624828960111756 -30.353563279965872 0
v 27.624828960111756 -30.353563279965872 -0.1
v 27.50098983546108 -38.178411061997686 0
v 27.50098983546108 -38.178411061997686 -0.1
v 26.164386499164834 -31.533180357476198 0
v 26.164386499164834 -31.533180357476198 -0.1
vt 50.63544041528406 -8.69963101885762 0
vt 50.5713733525464 -29.847450071334112 0
vt 39.48478105257419 -29.78338300859646 0
vt 39.54884811531185 -31.065049311866723 0
vt 50.69953998287343 -31.193215942193746 0
vt 50.50727378495703 -39.84460976110074 0
vt 37.305883327311314 -39.908709328690115 0
vt 37.24181626457366 -53.55866674005456 0
vt 13.210166767609781 -53.68683337038159 0
vt 13.210166767609781 -31.70591496835357 0
vt 27.629156465788107 -31.51364877043717 0
vt 27.565089403050454 -14.339027762950204 0
vt 26.155223964601447 -14.274960700212551 0
vt 26.155223964601447 -30.42421616023159 0
vt 13.082000137282757 -30.296049529904565 0
vt 13.17301372209525 -8.463613290527785 0
vt 27.50098983546108 -47.919237491110266 0
vt 26.2192910273391 -47.85517042837261 0
vt 26.2192910273391 -38.178411061997686 0
vt 27.624828960111756 -30.353563279965872 0
vt 27.50098983546108 -38.178411061997686 0
vt 26.164386499164834 -31.533180357476198 0
vn 0 0 1
vn 0 0 -1
usemtl floor_1
s off
f 31/16/1 29/15/1 25/13/1
f 26/13/2 30/15/2 32/16/2
f 31/16/1 25/13/1 23/12/1
f 24/12/2 26/13/2 32/16/2
f 31/16/1 23/12/1 1/1/1
f 2/1/2 24/12/2 32/16/2
f 1/1/1 23/12/1 5/3/1
f 6/3/2 24/12/2 2/1/2
f 1/1/1 5/3/1 3/2/1
f 4/2/2 6/3/2 2/1/2
f 15/8/1 13/7/1 33/17/1
f 34/17/2 14/7/2 16/8/2
f 15/8/1 33/17/1 35/18/1
f 36/18/2 34/17/2 16/8/2
f 15/8/1 35/18/1 17/9/1
f 18/9/2 36/18/2 16/8/2
f 17/9/1 35/18/1 37/19/1
f 38/19/2 36/18/2 18/9/2
f 17/9/1 37/19/1 19/10/1
f 20/10/2 38/19/2 18/9/2
f 29/15/1 27/14/1 25/13/1
f 26/13/2 28/14/2 30/15/2
f 23/12/1 39/20/1 5/3/1
f 6/3/2 40/20/2 24/12/2
f 39/20/1 21/11/1 5/3/1
f 6/3/2 22/11/2 40/20/2
f 5/3/1 21/11/1 7/4/1
f 8/4/2 22/11/2 6/3/2
f 9/5/1 7/4/1 11/6/1
f 12/6/2 8/4/2 10/5/2
f 11/6/1 7/4/1 13/7/1
f 14/7/2 8/4/2 12/6/2
f 13/7/1 7/4/1 21/11/1
f 22/11/2 8/4/2 14/7/2
f 13/7/1 21/11/1 41/21/1
f 42/21/2 22/11/2 14/7/2
f 13/7/1 41/21/1 33/17/1
f 34/17/2 42/21/2 14/7/2
f 37/19/1 41/21/1 21/11/1
f 22/11/2 42/21/2 38/19/2
f 43/22/1 37/19/1 21/11/1
f 22/11/2 38/19/2 44/22/2
f 19/10/1 37/19/1 43/22/1
f 44/22/2 38/19/2 20/10/2
