# The Great Editor v0.0.1
mtllib floor_1.mtl
o floor_1
v 1553.206 -260.551 0
v 1553.206 -260.551 -0.1
v 1555.782 -920.12 0
v 1555.782 -920.12 -0.1
v 1216.551 -921.838 0
v 1216.551 -921.838 -0.1
v 1217.41 -952.755 0
v 1217.41 -952.755 -0.1
v 1555.782 -956.191 0
v 1555.782 -956.191 -0.1
v 1554.484 -1224.373 0
v 1554.484 -1224.373 -0.1
v 1140.177 -1230.236 0
v 1140.177 -1230.236 -0.1
v 1143.109 -1643.566 0
v 1143.109 -1643.566 -0.1
v 405.369 -1643.566 0
v 405.369 -1643.566 -0.1
v 402.437 -975.203 0
v 402.437 -975.203 -0.1
v 844.104 -972.271 0
v 844.104 -972.271 -0.1
v 843.127 -444.616 0
v 843.127 -444.616 -0.1
v 806.973 -443.639 0
v 806.973 -443.639 -0.1
v 805.996 -936.117 0
v 805.996 -936.117 -0.1
v 401.46 -935.14 0
v 401.46 -935.14 -0.1
v 404.113 -257.975 0
v 404.113 -257.975 -0.1
v 844.0346080623331 -934.7940267454493 0
v 844.0346080623331 -934.7940267454493 -0.1
vt 1553.206 -260.551 0
vt 1555.782 -920.12 0
vt 1216.551 -921.838 0
vt 1217.41 -952.755 0
vt 1555.782 -956.191 0
vt 1554.484 -1224.373 0
vt 1140.177 -1230.236 0
vt 1143.109 -1643.566 0
vt 405.369 -1643.566 0
vt 402.437 -975.203 0
vt 844.104 -972.271 0
vt 843.127 -444.616 0
vt 806.973 -443.639 0
vt 805.996 -936.117 0
vt 401.46 -935.14 0
vt 404.113 -257.975 0
vt 844.0346080623331 -934.7940267454493 0
vn 0 0 1
vn 0 0 -1
usemtl floor_1
s off
f 31/16/1 29/15/1 25/13/1
f 26/13/2 30/15/2 32/16/2
f 31/16/1 25/13/1 23/12/1
f 24/12/2 26/13/2 32/16/2
f 31/16/1 23/12/1 1/1/1
f 2/1/2 24/12/2 32/16/2
f 1/1/1 23/12/1 5/3/1
f 6/3/2 24/12/2 2/1/2
f 1/1/1 5/3/1 3/2/1
f 4/2/2 6/3/2 2/1/2
f 15/8/1 13/7/1 17/9/1
f 18/9/2 14/7/2 16/8/2
f 17/9/1 13/7/1 21/11/1
f 22/11/2 14/7/2 18/9/2
f 17/9/1 21/11/1 19/10/1
f 20/10/2 22/11/2 18/9/2
f 29/15/1 27/14/1 25/13/1
f 26/13/2 28/14/2 30/15/2
f 33/17/1 5/3/1 23/12/1
f 24/12/2 6/3/2 34/17/2
f 33/17/1 21/11/1 5/3/1
f 6/3/2 22/11/2 34/17/2
f 5/3/1 21/11/1 7/4/1
f 8/4/2 22/11/2 6/3/2
f 9/5/1 7/4/1 11/6/1
f 12/6/2 8/4/2 10/5/2
f 11/6/1 7/4/1 13/7/1
f 14/7/2 8/4/2 12/6/2
f 13/7/1 7/4/1 21/11/1
f 22/11/2 8/4/2 14/7/2
