# The Great Editor v0.0.1
mtllib floor_1.mtl
o floor_1
v 0.06298466441466867 -1.4108564828885783 0
v 0.06298466441466867 -1.4108564828885783 -0.1
v 0.10077546306346988 -0.12596932882933734 0
v 0.10077546306346988 -0.12596932882933734 -0.1
v 2.179269388747536 -0.12596932882933734 0
v 2.179269388747536 -0.12596932882933734 -0.1
v 2.229657120279271 -1.373065684239777 0
v 2.229657120279271 -1.373065684239777 -0.1
v 2.179269388747536 -1.8895399324400601 0
v 2.179269388747536 -1.8895399324400601 -0.1
v 1.4486472815373794 -2.6453559054160842 0
v 1.4486472815373794 -2.6453559054160842 -0.1
v 0.10077546306346988 -2.6453559054160842 0
v 0.10077546306346988 -2.6453559054160842 -0.1
vt 0.06298466441466867 -1.4108564828885783 0
vt 0.10077546306346988 -0.12596932882933734 0
vt 2.179269388747536 -0.12596932882933734 0
vt 2.229657120279271 -1.373065684239777 0
vt 2.179269388747536 -1.8895399324400601 0
vt 1.4486472815373794 -2.6453559054160842 0
vt 0.10077546306346988 -2.6453559054160842 0
vn 0 0 1
vn 0 0 -1
usemtl floor_1
s off
f 3/2/1 1/1/1 7/4/1
f 8/4/2 2/1/2 4/2/2
f 3/2/1 7/4/1 5/3/1
f 6/3/2 8/4/2 4/2/2
f 11/6/1 9/5/1 1/1/1
f 2/1/2 10/5/2 12/6/2
f 11/6/1 1/1/1 13/7/1
f 14/7/2 2/1/2 12/6/2
f 1/1/1 9/5/1 7/4/1
f 8/4/2 10/5/2 2/1/2
